<?xml version="1.0" encoding="UTF-8" standalone="no"?>
<!DOCTYPE svg PUBLIC "-//W3C//DTD SVG 1.1//EN" "http://www.w3.org/Graphics/SVG/1.1/DTD/svg11.dtd">
<svg width="100%" height="100%" viewBox="0 0 545 541" version="1.1" xmlns="http://www.w3.org/2000/svg" xmlns:xlink="http://www.w3.org/1999/xlink" xml:space="preserve" xmlns:serif="http://www.serif.com/" style="fill-rule:evenodd;clip-rule:evenodd;stroke-linejoin:round;stroke-miterlimit:2;">
    <g id="Artboard1" transform="matrix(0.453937,0,0,0.857331,0,0)">
        <rect x="0" y="0" width="1200" height="630" style="fill:none;"/>
        <g transform="matrix(2.61369,0,0,1.38389,-612.688,-218.547)">
            <path d="M418.107,213.753C418.107,188.261 438.804,167.564 464.296,167.564C489.788,167.564 510.485,188.261 510.485,213.753C523.231,191.676 551.503,184.1 573.58,196.847C595.657,209.593 603.232,237.865 590.486,259.942C612.563,247.196 640.835,254.771 653.581,276.848C666.328,298.925 658.752,327.197 636.675,339.943C662.167,339.943 682.864,360.64 682.864,386.132C682.864,411.624 662.167,432.321 636.675,432.321C658.752,445.067 666.328,473.339 653.581,495.416C640.835,517.493 612.563,525.068 590.486,512.322C603.232,534.399 595.657,562.671 573.58,575.417C551.503,588.164 523.231,580.588 510.485,558.511C510.485,584.004 489.788,604.7 464.296,604.7C438.804,604.7 418.107,584.004 418.107,558.511C405.361,580.588 377.089,588.164 355.012,575.417C332.935,562.671 325.359,534.399 338.106,512.322C316.029,525.068 287.757,517.493 275.01,495.416C262.264,473.339 269.84,445.067 291.917,432.321C266.424,432.321 245.728,411.624 245.728,386.132C245.728,360.64 266.424,339.943 291.917,339.943C269.84,327.197 262.264,298.925 275.01,276.848C287.757,254.771 316.029,247.196 338.106,259.942C325.359,237.865 332.935,209.593 355.012,196.847C377.089,184.1 405.361,191.676 418.107,213.753Z" style="fill-opacity:0.35;"/>
        </g>
    </g>
</svg>
