<?xml version="1.0" encoding="UTF-8" standalone="no"?>
<!DOCTYPE svg PUBLIC "-//W3C//DTD SVG 1.1//EN" "http://www.w3.org/Graphics/SVG/1.1/DTD/svg11.dtd">
<svg width="100%" height="100%" viewBox="0 0 539 504" version="1.1" xmlns="http://www.w3.org/2000/svg" xmlns:xlink="http://www.w3.org/1999/xlink" xml:space="preserve" xmlns:serif="http://www.serif.com/" style="fill-rule:evenodd;clip-rule:evenodd;stroke-linejoin:round;stroke-miterlimit:2;">
    <g id="Artboard1" transform="matrix(0.44863,0,0,0.799308,0,0)">
        <rect x="0" y="0" width="1200" height="630" style="fill:none;"/>
        <g transform="matrix(2.58205,0,0,1.44924,-798.787,-243.771)">
            <path d="M560.056,188.983C546.161,187.739 532.168,187.739 518.272,188.983L511.391,219.857C498.073,221.735 485.019,224.959 472.467,229.469L449.756,205.902C437.047,211.227 424.929,217.675 413.57,225.155L424.362,255.064C413.847,262.827 404.291,271.633 395.867,281.323L363.412,271.378C355.296,281.846 348.299,293.014 342.521,304.726L368.094,325.655C363.2,337.223 359.702,349.253 357.664,361.526L324.162,367.868C322.811,380.673 322.811,393.569 324.162,406.374L357.664,412.716C359.702,424.99 363.2,437.019 368.094,448.587L342.521,469.517C348.299,481.228 355.296,492.396 363.412,502.864L395.867,492.919C404.291,502.609 413.847,511.415 424.362,519.178L413.57,549.087C424.929,556.568 437.047,563.015 449.756,568.34L472.467,544.773C485.019,549.284 498.073,552.507 511.391,554.385L518.272,585.259C532.168,586.504 546.161,586.504 560.056,585.259L566.938,554.385C580.256,552.507 593.309,549.284 605.862,544.773L628.573,568.34C641.281,563.015 653.4,556.568 664.758,549.087L653.967,519.178C664.482,511.415 674.037,502.609 682.461,492.919L714.916,502.864C723.033,492.396 730.03,481.228 735.808,469.517L710.235,448.587C715.129,437.019 718.627,424.99 720.665,412.716L754.167,406.374C755.517,393.569 755.517,380.673 754.167,367.868L720.665,361.526C718.627,349.253 715.129,337.223 710.235,325.655L735.808,304.726C730.03,293.014 723.033,281.846 714.916,271.378L682.461,281.323C674.037,271.633 664.482,262.827 653.967,255.064L664.758,225.155C653.4,217.675 641.281,211.227 628.573,205.902L605.862,229.469C593.309,224.959 580.256,221.735 566.938,219.857L560.056,188.983ZM539.164,347.307C563.009,347.307 582.367,365.147 582.367,387.121C582.367,409.095 563.009,426.935 539.164,426.935C515.32,426.935 495.961,409.095 495.961,387.121C495.961,365.147 515.32,347.307 539.164,347.307Z" style="fill-opacity:0.72;"/>
        </g>
    </g>
</svg>
