<?xml version="1.0" encoding="UTF-8" standalone="no"?>
<!DOCTYPE svg PUBLIC "-//W3C//DTD SVG 1.1//EN" "http://www.w3.org/Graphics/SVG/1.1/DTD/svg11.dtd">
<svg width="100%" height="100%" viewBox="0 0 407 399" version="1.1" xmlns="http://www.w3.org/2000/svg" xmlns:xlink="http://www.w3.org/1999/xlink" xml:space="preserve" xmlns:serif="http://www.serif.com/" style="fill-rule:evenodd;clip-rule:evenodd;stroke-linejoin:round;stroke-miterlimit:2;">
    <g id="Artboard1" transform="matrix(0.338744,0,0,0.632155,0,0)">
        <rect x="0" y="0" width="1200" height="630" style="fill:none;"/>
        <g transform="matrix(2.95208,0,0,1.58189,-606.157,-176.272)">
            <path d="M427.102,122.089C414.79,120.914 402.39,120.914 390.078,122.089L383.98,151.244C372.179,153.018 360.613,156.062 349.49,160.321L329.366,138.066C318.105,143.095 307.367,149.183 297.302,156.247L306.864,184.49C297.547,191.821 289.08,200.137 281.615,209.287L252.857,199.896C245.665,209.781 239.465,220.327 234.345,231.386L257.005,251.15C252.669,262.074 249.57,273.434 247.764,285.023L218.077,291.012C216.881,303.104 216.881,315.282 218.077,327.374L247.764,333.363C249.57,344.953 252.669,356.312 257.005,367.236L234.345,387C239.465,398.059 245.665,408.605 252.857,418.49L281.615,409.099C289.08,418.249 297.547,426.565 306.864,433.896L297.302,462.139C307.367,469.203 318.105,475.292 329.366,480.32L349.49,458.065C360.613,462.324 372.179,465.368 383.98,467.142L390.078,496.297C402.39,497.472 414.79,497.472 427.102,496.297L433.2,467.142C445.001,465.368 456.568,462.324 467.691,458.065L487.814,480.32C499.076,475.292 509.814,469.203 519.878,462.139L510.316,433.896C519.633,426.565 528.1,418.249 535.565,409.099L564.323,418.49C571.515,408.605 577.715,398.059 582.835,387L560.175,367.236C564.511,356.312 567.611,344.953 569.416,333.363L599.103,327.374C600.299,315.282 600.299,303.104 599.103,291.012L569.416,285.023C567.611,273.434 564.511,262.074 560.175,251.15L582.835,231.386C577.715,220.327 571.515,209.781 564.323,199.896L535.565,209.287C528.1,200.137 519.633,191.821 510.316,184.49L519.878,156.247C509.814,149.183 499.076,143.095 487.814,138.066L467.691,160.321C456.568,156.062 445.001,153.018 433.2,151.244L427.102,122.089ZM408.59,271.596C429.719,271.596 446.872,288.443 446.872,309.193C446.872,329.943 429.719,346.79 408.59,346.79C387.462,346.79 370.308,329.943 370.308,309.193C370.308,288.443 387.462,271.596 408.59,271.596Z" style="fill-opacity:0.75;"/>
        </g>
    </g>
</svg>
